<svg xmlns="http://www.w3.org/2000/svg" width="12.402" height="13.208"><path d="M4.907.049a2.194 2.194 0 0 0-.183.464 8.31 8.31 0 0 0-.183.867q-.1.574-.22 1.489t-.305 2.319q-.183 1.4-.427 3.381t-.588 4.641h-1.1q-.342-2.686-.6-4.651T.874 5.19Q.703 3.79.569 2.871T.337 1.382A8.31 8.31 0 0 0 .154.515 4.238 4.238 0 0 0-.005.051V.002h4.907Zm7.5 0a2.194 2.194 0 0 0-.183.464 8.309 8.309 0 0 0-.183.867q-.1.574-.22 1.489t-.31 2.319q-.183 1.4-.427 3.381t-.583 4.641h-1.1q-.342-2.686-.586-4.651T8.388 5.19q-.183-1.4-.317-2.319T7.837 1.38a8.31 8.31 0 0 0-.183-.867 4.238 4.238 0 0 0-.159-.464V0h4.906Z" data-name="Path 22863"/></svg>